<?xml version="1.0" encoding="UTF-8" standalone="no"?>
<svg
   xmlns:dc="http://purl.org/dc/elements/1.1/"
   xmlns:cc="http://creativecommons.org/ns#"
   xmlns:rdf="http://www.w3.org/1999/02/22-rdf-syntax-ns#"
   xmlns:svg="http://www.w3.org/2000/svg"
   xmlns="http://www.w3.org/2000/svg"
   xmlns:sodipodi="http://sodipodi.sourceforge.net/DTD/sodipodi-0.dtd"
   xmlns:inkscape="http://www.inkscape.org/namespaces/inkscape"
   inkscape:version="1.0rc1 (09960d6f05, 2020-04-09)"
   sodipodi:docname="nun_Nabataean-Aramic.svg"
   id="svg4"
   viewBox="-10 0 1120 2048"
   version="1.1">
  <metadata
     id="metadata10">
    <rdf:RDF>
      <cc:Work
         rdf:about="">
        <dc:format>image/svg+xml</dc:format>
        <dc:type
           rdf:resource="http://purl.org/dc/dcmitype/StillImage" />
      </cc:Work>
    </rdf:RDF>
  </metadata>
  <defs
     id="defs8" />
  <sodipodi:namedview
     inkscape:current-layer="svg4"
     inkscape:window-maximized="0"
     inkscape:window-y="0"
     inkscape:window-x="0"
     inkscape:cy="753.24577"
     inkscape:cx="352.32248"
     inkscape:zoom="0.77339804"
     showgrid="false"
     id="namedview6"
     inkscape:window-height="480"
     inkscape:window-width="839"
     inkscape:pageshadow="2"
     inkscape:pageopacity="0"
     guidetolerance="10"
     gridtolerance="10"
     objecttolerance="10"
     borderopacity="1"
     bordercolor="#666666"
     pagecolor="#ffffff" />
  <path
     sodipodi:nodetypes="ccscccsccscscscscc"
     inkscape:connector-curvature="0"
     id="path2"
     d="M 601.002,1608.89 529,1603.0033 c 6.53418,-66.957 15.6025,-133.496 22.9062,-198.31 4.34473,-38.5537 12.9482,-148.629 15.0938,-185.69 7.37598,-127.432 15.3457,-197.481 17,-309.00002 -82,0 -190,0 -298,4 12.26728,-78.92967 9.31819,-164.08405 0.33705,-245.26532 -9.35132,-84.52733 -25.24218,-164.74728 -37.30516,-229.14839 l 66.24203,2.58599 c 10.00826,74.72623 26.49362,142.90022 32.00621,210.6482 5.65981,69.55738 7.93079,135.93973 4.71987,200.17982 70,-3 116,-1 186,-1 22.0645,0 84,0 120,-2 -2.39844,142.812 -5.98633,296.37602 -18.998,438.88702 -2.81348,30.8135 -9.25293,81.6484 -12,112 -6.74219,74.4834 -16.0781,132.829 -25,210.996 v 0 z"
     fill="currentColor" />
</svg>
