<?xml version="1.0" standalone="no"?>
<!DOCTYPE svg PUBLIC "-//W3C//DTD SVG 1.1//EN" "http://www.w3.org/Graphics/SVG/1.1/DTD/svg11.dtd" >
<svg xmlns="http://www.w3.org/2000/svg" xmlns:xlink="http://www.w3.org/1999/xlink" version="1.1" viewBox="-10 0 608 1000">
   <path fill="currentColor"
d="M504 800q-43 -75 -92.5 -147.5t-97.5 -137.5t-89 -114q-29 -37 -52.5 -65t-41.5 -50t-33 -39.5t-28 -32.5h54q18 21 37.5 44.5t46 55t64.5 78.5q40 52 89.5 119t100 141t93.5 148h-51zM43 800l24 -170q9 -61 26 -108.5t47.5 -84t78.5 -61.5l20 31q-41 22 -66 54t-39 73.5
t-21 94.5l-24 171h-46zM380 552l-20 -30q41 -23 69.5 -54t44.5 -72.5t20 -93.5l7 -88h46l-7 86q-5 61 -24.5 108.5t-53.5 82.5t-82 61z" />
</svg>
